<mxfile host="Electron" modified="2023-05-19T15:24:05.609Z" agent="Mozilla/5.0 (X11; Linux x86_64) AppleWebKit/537.36 (KHTML, like Gecko) draw.io/21.2.1 Chrome/112.0.5615.87 Electron/24.1.2 Safari/537.36" etag="P7B-hKIbzOP-65Yf3DsW" version="21.2.1" type="device">
  <diagram name="Page-1" id="FYUIMrCMprBOztPDI_I8">
    <mxGraphModel dx="1434" dy="858" grid="1" gridSize="10" guides="1" tooltips="1" connect="1" arrows="1" fold="1" page="1" pageScale="1" pageWidth="827" pageHeight="1169" math="0" shadow="0">
      <root>
        <mxCell id="0" />
        <mxCell id="1" parent="0" />
        <mxCell id="viRjkFqy904Te7cRcFOw-1" value="" style="shape=image;verticalLabelPosition=bottom;labelBackgroundColor=default;verticalAlign=top;aspect=fixed;imageAspect=0;image=data:image/png,iVBORw0KGgoAAAANSUhEUgAAAKsAAACYCAYAAACbBhkaAAAlU0lEQVR4nO2dB3wU1fbHz8xs79nd9BBCIKEkdCSUUKQqEhUVpCjw4CGKDRX/WPGBiijl+QTB/lBpTxGxgNIRqUonSCCUkBBI3ewmm+078793J9FEAoRkdmeXzPfzObDZnb1zdvc39557bhkRwzDQhJEiCwfaGQ+0IxEYdzNgPOHoORKAUKPHUt9RBOkBgnIDwziBEJUjMwMpyQNSdh69WISOKEZm5fFzNAlEfDsQEGhnKnjKMtD/PZDwWgAhjgJKqQVKJUFiQ9KUsgbowvXaq95jQy9Rtcuh8DHoORK/TfT3c7jQe8xI8JfRAWeBVO4GSr4TvfIHMrffP2MT4BYUKyMDd8kY8FSMAkrWBURhBiDlFEgiAVyoAnSjitBdgqyU/d9rQYYqRW8la1DPloaUId2qqkwNIDZIQGyMqLJOINI9wLrjpcFbUYge7AdKswZdAFvRsya/ffxbmFtDrLgZd+a/CqQ4A4kSiSWc8LXk9jMAjl0Azjxkl9BxDg7P6WANC74uCHR+SQwKNOJIkMZHgyJpBBLwCCRaBon3MqrdV6OL6GN05BnunLq1CWGxMiJwXJyNRDEZJLGRIGsGUJkJYN4BYDt9bREFzD2avUCwwX72OUoJIE8mQNEuFtSdZqA/ZqBa/RIKQRYj8X6Ajijn0+VgJ/TESjuNqKb8EDW7GSBrLobKk6hR3YKEepzbmtMf4DDDeoS1otUAimQAdbc4UHefh66u11HIsAKFF/9CR+bx7WowEkJiZQiwX1gIYv2TIG0mgvJ9qBbdjuLQQr4dayCo5rVlsVa8jgBtugTCbv8HqmHHo8+6AHXgXkcH2fj2MpgIDbF6LB1Qb34nyFuEQTlqUku+xc/x7RV34MxD2WZ88REQNlAE+mEzkWCxcO+FP2MIgeAXqzN3KupFv4963RTkvoM6TOf59sh/MB4U0mwCsOwjIGpCBCjb7UYdxSfQKx/w7VowENxidV4ejXr2y8B+joCCT1HM10RaRS/qZ+UvIcBwFwWGjKXA5tM+5NstvglesXqtyaj3vBIcuQRcXsbWOk0KpM/SH9msgvFuJFjiHHpyK99e8UnwitWZvwKk0SRc/qAJCrUGpo0EKFpXgKLNQvRXZ/D1zJomwSpWOepMdYOS9Wzno6lTtFoDCbNT0aOhyH7i2x2+CE6xekqHgMdKQMUhvj0JDlwF6DspKwVRWFcQxBpk0PRAdty+km9PggePWY7Eegd69AbfrvBFcIqVlFhBjSoR00/suL4AgLSZHP0r4dsNPglOsTK02Td0qk1nhyWbOsr2eEoinq9YwLcrfBKcYsU9XkLCitWyBw8M8O0Pf+CpiOH34TkRFUBKy/h2h0+CVayoJiEAbGcAYp8AyHubnX/a1MCTv6MfQYJVIbFWFrITxJsuwStWzOUPAZrNQDYT4MrHAPZsvj0KHCINK1RpM3SxLgSIeaTJrzYIbrHiuDVvAUDURIC4Z1GHawM7ds7c4r+bqjNAxJiqz/82Hnbm26OgILjFisE/GK5hwwYCGO4G0PRiZ11VHIR6L0EJFaTxKD59gJ3nWv4b27mk7Xx7FTQEv1h9IFGWbUUC/R0JNgM1j5MAjPeiztcuAPOvIT7KhWJzRRt0MQ5ge/2OXLY1sZ/l27GgI0TEWgWew1q4ghWuDv24+ruQDQOwHkN2CHyrBkJlHoEsAXy5ZBUysZ71/dJ7qFN5Cm65FoMjQkus1eDhx6JVAKXfoR+8O14agjogj7EhQ/Xse7wOy3WFb0//gkIdJkXrKmuHV8OyK20rUHOPJ5S7mnQKtV6EplirwcOxeIEgNlEY2zFRtkUhwgg2P+kpR52THHbRniOPHQ3zlLLT7vyJSMuubJXFs715aRz6O8q3sNXnT8UBZEeadv64AYS2WGviKWPXZGHDy6ClCagGS2I7Lbip1d8JvvgQC9Vjqto7oJgVNF35t70DaLzev/YCRELMbm6BIRVV+wUoqww9Fhv/MqLqOI+ZvVCsR1EMeo5NvQX7osYg5tYRa02wIPHyl5pLYHBCXRKNxBReJapw1mQt/xLd33dZuf5J/hI3FjqusbEofRdBCZtu8lZw/cmaNLemWOuCdiLx5rB2LXy7rCDR4hoYC7fmiBHuuOEyfGU5bm73FgFOaDpirQ/Vu6wIBCWCWAVCBkGsAiGDIFaBkEEQq0DIIIhVIGQQxCoQMghiFQgZBLEKhAyCWAVCBkGsAiGDIFaBkEEQq0DIIIhVIGQQxCoQMghiFQgZBLEKhAyCWAVCBkGsAiGDIFaBkEEQq0DIIIhVIGQQxCoQMghiFQgZBLEKhAyCWAVCBkGsAiGDIFaBkEEQq0DIIIhVIGQQxCoQMghiFQgZBLEKhAyCWAVCBkGsAiGDIFaBkEEQq0DIIIhVIGQQxCoQMghiFQgZBLEKhAyCWAVChuAUKymqus0fAcItJ6shvdDEv4zgFCulOuwTKr4tO76DtQD+TvBNZS/y7QafBKdYgTjhu7W1og0J5Xv5doZ/ZAn5QErj0KPjfLvCJ0EqVqgA2vk1GO4aBRW/Eb47UjdloiZlo3/dyH7g2xU+CVax4tup/x8Q4uEQNVEBVz4lmmy4FjlxB0gi+6NH45C5ePaGV4JXrAC5QFD3gLrbz0Cj36holajJ1bCR47eDtmcf9GgestV8u8M3wSxWzDYUv44Eba+VIGvmgfylMvCU8e2T/yHldoifuQck0QPRX4uQvcy3S8FAsIsVsx4JthtIm62DFm8mQtkmBko3SoFx8+2XfzCOOARhg8NRq9ID/TUa2Vd8uxQshIJYMaeQYDujH/AZ0N/5Muj6u8C0WQzmnTKg7Xz7xgEUDcZ7DoKunxzF6l3QE6uQvYDsEs+OBRWhIlYMHih4C4l2OZCKF8B47yQwZDjBergCyrYbwXEBQq4TJksoAsPwM6Bol4AuxG7omQ3IpiA7wLNnQUkoibWaK8ieRjYL/cD/BPVtU5AZUQ1rBusxJ5TviwD7OSI4wwQCQNnuCmj75oCijQ7Vom2A/Q1WIluMLJtf/4KbUBRrNRZkC6usE+qUjARND2yRgNMHruIisGWRUJkZAc4cEXjKA+8hKWNAmZoPipQCUCQBiA2J6Mlo9IoU2XfIngVfJxKC8coKOkJZrDU5WmW419wcCWIASCKx9UNxIPsZGbcF3CYTuEu84CqQgjNXB85Lap+IaatvwKxBUEr0LeodqEkvRJ1ACzqnB4mSAJHOCIQ4Fh2BR57UyPYB21najuwIsgaesOlyq4i1Jnj8/L9VhjECrnkJcWckpPbIEkGZgmo4n4D+gqErkaArkDl9yqXdqLZjSGC8LhRuiJF5gCAlSJ0kECIRMhV6ToPeSSGTge8iATOyC1X2I/x1EZ33+6duAtyKYv07Jci2VllNsMCwaMORGZAQw4GQImFLsYglSILKquPw36jq9fXe8AhSJbCdvdKqsvH/hcjykAmzbvxIUxDrtcCC+4NvJwTqT1MWq0CIIYhVIGQICbEWFRVFvPfee0+98cYbr/DtC38c7wBwpDPAhM/59oQvgl6s5eXlmgkTJnz+7rvvTufbF35pfwLgrRcBOh0F6HiMb2/4IKjF6nK5JJMmTfps7ty5L7Vu3fo03/7wC8EALJ0GMHoNwNoHANQVfHsUaIJWrF6vl5o8efKnTz311HudO3c+wrc/wUFYGcCcWQAzFgB8OJVvbwJNUIqVYRhi2rRpS0eMGPFt3759d/HtT3CRdgBgZ3+Azyc0tfg1KMU6c+bMt9PS0g7cd9996/j2JTj5v3cAxq0EuO13gHZNJlccdGKdN2/eC5GRkYU4VuWqTJvLGysTU4UkAQ1aF+Og3TKn1y3VihWWhrwftRQSj8cTJhaLCxvy/qvB8euSJwAe/hLg65EAChs35QY3QSXWL774YrzValVxnaLak235oH+bsHEkRTRo6tUB05m0zIrc1Mdb3Pl+Q96P4m9VXl7e/MTExPENeX/d6E0AL8wDeG4hwLLHuCs3eAkasX7//fd379q1q+/HH388hctyL5Y6RkTrJNvFDRQqxuZ1KhSUpMG1l0gkMqHaVYRqVwN6XNrQcq6mz68Au/oCfPkwW8ve2gSFWHfu3Nl/9erVY7788suHCYLgbLo/KojMulI5ZVA7/f2NKafS61AqKVllY8owGAyrTCbTgxEREUsbU87VvPgWwMiv2fi1TRa3ZQcXvIv12LFjHfHoFBYrqnU4XWt9rsj2UIJRvo4iiUYt1MI1q16sbtSMKq1W+/PZs2fXci9WkmbDgPFfAHw7AkB+KyxKqxNexYp+vFavvPLKG6tWrRorlUqdXJZNM4z4XJF9zOAUQ0Zjy7J5XYo4ubRRi/dQi+GRyWTZNputvUKhONFYn2oTUcTWsM/PZztetya8iTU/Pz8W51Jx069Wcz8ac7rANiUpUrG8oRmAmrAxq7TRPW6j0bi8pKRkPBLrzMaWdTX9fmHzryvHsWmtWw9exFpaWmrAqSncmcJpKq7L99KMPLfUMXxIqmE4F+U1toNVjVwuP2m321NwZwvXtFz4VptXXwd4YC1At4MAt97wdMDFippBBRYqnpjSvHlzv2zhePJy5VPtYpRLCI7WOdk8TkVjO1jV4NjVYrEM1el0G7gorzbV8Sse2br14teAitXtdovHjx//BR6hatu27Sl/nMPlobWFFlfvDnGqt7kqk6swAIOzAhcvXvyPf8SKwS3VzLfZGPbWmqkWMLHSNE3iiSlTpkz5uFevXn7bdPVEfuWM1DjlIi7L5FKsOOeK/iM9Ho8RPS7hosyruX0HwPYBAKvHAIy5ZTZ0C5hYZ8yYsWD48OE/Dh06dJO/zuFw0+EWm6d11+bqV7ksl0uxYlDtuhrF7Q+ieL1BI2L1Y/ZrbP4VT3xJvCVW1wZErLNmzZqTkJCQM2rUKL9uMnY0r+Ll9nHKBVyX66I9EjFJcbYRRVXO9Rv/ihXHr3j+6z8/AfjmfgBJyO/t6nexLl26dBrqBdvxvFR/nsfq9MY73bQhXC35zZ/n4YKqnOtp/+Rca4Lj12f+DfDSXIAFM/x3nsDgV7HiZH9WVlYbPELlz/NgjuZWvNKxmXquP8rmcgi4mqqc60Qk1v/juuzaDNgOsHUQmx0Y8a1/z+Vf/CbWLVu2DN66deugTz755J/+Okc1FrsnGe/jrlOI/JJh8AeotfnDbre39V/OtSZ4dQEWKl6/1eKCf8/lP/wi1gMHDqR9+umnk1esWPEQSZJ+39PpSG7FrK7NNZx2qgKBf3OuNcFzLnD+deqHbA0bmvEr52LNzMxMnTNnzqyvvvpqFNcTU+rCVOnuIBOTxWoZ5bcaAy+z8Ue5OCtw8eLF9/wvVkzcJYAnlgC88gbAO34OPfzDDcVaXlZq2LJu1cOH9u/pXWIqC8PVpDEq9lKX9AHb+g8csikiAk+iYLlw4UKL5557buGaNWtGK5VKTkZ8bsTRXOurPVtqQ3LyRlXOFfybc63JnT8B7Lgd4Lt7AO75zv/nw5SFAZxPBOh6qLElXVOsR3ZuHD575jP/+flQdqLTy0CMigSDjMR76EGZg4H5y/47AXc8bu/V/fdX33zneTwi9fjjj7+/fPnyiWFhYQG5S0VhuStdKxedlktIzucX1MQfHaxqqnKuoyMjI5f46xy1mfvSX/Grf4a7qzlbvOHFROOjT5LEmy/4RaxOm1X9zOihWz/6cW/3eA0FT3eRQ99mEtBJa7eEDg8D+y67iXVnDnXv16/fL33Te+19970lT0RHR19prFP15cQl64w+ybp/+PMcNMOQJBB+i7tR3LopOzt7XeDEikMznH999AOA9fcCiBuQP6ZJNo9bNy6PQ3e26JltbaM/6kL4vjojJ61GLbGai/LjhvXseOJIrkk3vasC7mklBfIa0ZpMRMDt8RKf7b3shvkHf08b++DIrzdt3T4gPj4+lwvnrkeeyTEsXC3ZLxWRfq3F7bRTLqekfpsQgjMBcrk8y2azdVAoFAG63WWzPIBpSwFem83WtPWHAYasdPY/opI+N6uuUCLffPBBknj488TwPOn6o1OZEZ2XETcWa6US4MZh459iddkrlcN7dz6WddmkWzpIDclhVL0/QK8YMXw0mKKe/zW/2ZDBg7bt3bc/Ta/X+3OvUuLUFdvjA9qEjfLjOXzYPC5Opgdej6qc6z+QWJ/353lqcxfq1G0bCPBDBsAdP9e3hr1QvO7VxPBfOwDsXk8zMxaRxNyZuLZGnVDqdMHctS0jXr83p6QtzP95HURpLGaAZWHXFuuhrgAfPAoweAvAjUc3/xTrixPv3njwQol+yUDVTQm1mnA5CQv7SCVTd1yKe+SRRz5auxZvceMfzhfbR8WFSTeKKMLvnTi8/orLeQF1UZVzbYN+cDGqaQN4f4G3Z+L5rwwcSKuwn+ivlk1eQBB3briecMXUvGeP5fWB/efvhEnpr0/3wv50q/PtuWbb88uTIg/ovj3yGHx/dAoKnyhIjc3Dv08tsbq9trCc0uXvRKg/HayVH27O5oDrNwzvE2v2kf29Fq/d0XdqRxm0NTQ8m2VAgn2hq0j2zLp1923cuHEYYmODC7sGDANUdqFt4qB2+nu5LrsuuJ7Eci10Ot1PVTnXH/19rr/Aolz8JAGPfKSWbelFEN9/63AbbV56zFqldPKiv28Al2va/ES8/qBm+d4v4HRBV7hY2pZ8etAzXSM1vdY73Qkw+4eVqCJJ/fN4g8piY3O6mvJSa+bgEuuSuc30q7smRZRXBZd43gKeMF4/fMqc8/zjy4wKAh5IljX643eLFEHf5AgT3kzNH2I9U2j7R8sI+WqKJDhds3UtAiVWg8GwMicnZ0lgxYrB/YupH5Y7yluUVVqSD10coEhPWj9eKV08vtyeckUinrRUJnroI7zOy0u/9drpgi4+oWJyTcnwyrf/o/q3+Qa2nxoFTo+8Vsk6hdlNMyImv6xPYZx+TwTNxMDJ/KHm21qsV7JN/83tdyByu1ySH/YcSx3bRgoikpuPf3eMXT9j595e58+fT0RwNj3NSzPSCyX2UUNSDMO4KvNG+MQq8r9YKYrCu70Qgcu51mTEtyqZQ6mWPfzlgs1LYf2RRyE56jD0SfouOi3xtddpZubssso+p1sYdxrnb/qg1jvtbhX8dGJCnaVa7AUpBDigtJKK+N/v70NxRUfTmyMmWBlGQzs905YzzJE+FAkeiYis8f2qrFeHITh1qDOLDmzfONzi8JLpsWLOPnq3SIpQyKWObdu2DeRSrFlXbI+1jVYu42IRYH3BK1sDUbNi8CqC0tLSMZGRkYsDcb6aUMSItS6P6pPerX6Qbjg+yVd7Yvti30twW8IWEgm3bbkjBY7npde7zMz8nrAjayQSaSxIRA54adgkvYg6q8evycTD6zldFI+84T3P7v9GdGj/7j5yEQE4p8oVFIpI2jaPLjh+HO/WzA1uL6PKNzsHDUnRN3pp9c1Q6cEbXEgDMhqHc65V81w5FmuJkWFKwx1uc7TTUxbr9pqiPbTZSCPzMuWoA2TWEWDRGFQSpl/yt4DFWo3LI4M9ZzN8RpEeYKD+I89/XE7787GXFkHNWlkmrkQ68QIeb+ne4lRun6St1mjt9kSCsKNYNCEHi5O1HvvZmhWFASXFxeF6GXETLtQPg0bhKCkpMXJV3qkrldNSYpT/gQDfoBWHATqx0hyIcxEE4cXzXPFsLLlczuEMsssxQEz+TC452FUuYZ9xuJVgd6nAhppxm0vte5xv7oYeq0AltYDVqb2qFCy4hoLfW+nU+B7jgYLOzXJyBrfbXphg3NicIvPjAZKyAab/mxVo3aNdIkoic/hjeIYgKM/NDFOaShytDxwseKXQ7unrkYsjCQm+URoO4mi7iiTOtYzXrAuLkJ/0g6vXBYs1Rqa/HKjzxcXFvYq+N45nRXU4TsC+HgALn2OYf80uKG/lXbxtjiLX1Jrb09SDYe0/Zx7o9nm5hCpMAEhBLdbkj1iBdrjhgIgoOqHVGTzWT+ONoTisXksqXeLk8PDiGx1nNtkTN2zNXWcPV3ZkRBRY88vAnlsOnnIXnu0EYrVUKYvXdLDQ0OHo5cpZLQ2SlT1a65+VicmAdEIClQ2ohnuhVoOHWWe+TRD3ro/STv7szREPpv14/J/0N4emij00d/2VG/HLmRFE+7i9mpSYMi9J4B1k6r8hsqhb+oBteJz/YrkXWmi5iVs9QHn/OHsx/tGnr3+1HNx/5alDpc5/g1JCFq8/A2X78oF2113PEyISwrrHkN5hieNyTc6MQR2M98fopNs5cfg6cN3ByjyXv9ntcna+qTcRpFUkogo1CtnuKINmtVQqPQwNDodanyZgVx8gljwxvMNL89JabPO8v2OO/Fxx+4YVd5PgUGD+z0uJabfP8vRInLgc4GgngPnPsxfT9RF16tTpqEGjtO265FZwJdaT4qQTdsf+joMH41xa3ezekTf7FEPMsl+0QP7Kk+CxXX/ghvHQYNp7CcyHC8i4sSnan4HYNDBFP7K5QbaeE6evAa5ZlSLuOlhOp6uN3eU1njXVP/iSicColZEJUS5nmttmec7NkMWRRv3cMJ32/fqOeDFMua7Mdnhohf3oAC9zFMWumS0MSloWoTlDzMp4yNfr33bqwQZ/rhuB49SUmD+sd3fcd7xl+PZwqfh4ErsJMp4+eLgLQPcbrp0TURTlHTt27Kr/ffHZ5LFtZYSYg1zr2mw33b9//53XmtCSlVky8pSXmVV+vAjyV5z0Nff1hXZ4IO+/xwjv6LbkdgLWZHQOTzeqxAcb73Xd+CMMyK9gYOt5702+iz0+WkVAlxgqvDNTsshUZp4eFxM1CnXK6vihLzYH+HSy3X003eU52kMjvyTXKxnUC1dDnikZzucnQ64pw5fYv1SWhDpcisZ/sOsgFTkgvdUqVbuY73oBhJnZObVDNqNL0VHfMnzdu5mvvPavjz9bPmHVKYd4QkrjRrFOKDru37FvZw+8/qqu171eRvJLVtnnLrsH8lfdnFCrwW+5vCaLVESr6Z1y0ZcjuoR38teIVqBj1htxxcrAhjMe2JMLREZrJp6h8/dERUZMVKvVf9uMDc9VHb1GLjbr5OJdqOZi5JfKbjN/unu6LruwU0B8lYrsvtQXTnfhi+GDX+ZC5uU0mNT7DQ3AnLkSEb4fQquz9S3PJ9bY2Nj8Oa+/8crLL734VqcIEdkxvGEpijJls/Ozf/gjcdy4cSsHDhy4ra5jtm/L/Y8oXCG/8NY+YLwNz0JhkecsPyGXvZbe8kyhbXLbaCXH+56y4H2ugkms1ZhRfbTiuJsYnEiJekLhFygccKhUqm9qH4XFgFcW45u9rR4TF7bssdcyxnUxVbYzbTg+UvnLmbukOIXlL9KTttom9JpDljuSS4rKWzlzSlpKT11pYXx367uyMd0XtY3WdTkuIj+cXN9dY/5U5XMzZizYt3dP7xc3/3TnvN4ycYebFGyZKuHsM9vMVGRU9BW8V8C1jrtg8zxckVkCzsLGh4Fukx3smcXlmQrRdH+J1Um7pRJSFJQL7HALs/mcF8W0JE0SRZ+jjtcxsVhcR02F54riSSPYDqTplR88+lCPt8eM7LaQ2Z2dQaz5/dlGhwFaeamvjJrzA7ILkxUkYQOdPGmfTl6uSY5c3XZISq6M9V1Mo3AbHTx2FbtUfPGTN7qRx5+KxKtQV65eM3ocil+nb/gxY3J7GTyYJKZuNF+AIQjmoLzbrje+Odi+eUJCzoYNG+7SaDR17t9fWGzvQhnkSvNq7u6Gk7/5vEHWPtxgqnR31CvF17xN5OHSSz2PmM93Qb/vTSXohujTdn1ybtdVa7xkYqrijqj2G4wSTYDH8a9mQ7Zb1EpP2ktKShZFR0ffff2j0w5kFWQ9FKv7XuLySIlDFwdwEq++NOz9gzG69R3zzT2K9p9PV+87l665bE4EfKMagrj7e4CHVrBHlqMQ4I92BHEyBf8PkJkKsGUwu838mtHsbT/rplb1iXdOWfvNN/fPnz//+X+99trsH3KpyvuSJES60aXGa7BqUg5y6xEyKfPrY0W6Yye39J06deqHCxYsmHG9hYJnsstGMR4GKs+bG/O91MKRWw4Uaq2Lyl096xJrid0e1W/rW8f/oE+Ec3bSKnb3eSvdqOdfrF4a4IczbvW49pUZLperg0QiqTNlaLFfSS0sn7KpddTGmJ1Z98OqA8/7JqLcLK2jzloIMGuzCrr5/lZJHY7YsA1tAUatiQtzyB7o+v7gB7q+CVZny1IGKNQlPNbxL7HiigwPoWKr5Z0Wtbstrrdk5qq2HteweEvK0aNHr8Gi/XLVqrHvlVlAr1VXRBnDzJRI5CkuK1cXFF02yuVlHTMyMn749PMV47p06XL4Rh/SYnMnuy0uXxqKK3BTKHF7i8sd3lZ1vX7H9kUHznnPhw+yTIZIN/ouGjmw7Ez6ddvP1p1pK7o+81CPsOT9N35HYDhbSoOLIU0VFRXjDAZDHWL9eqRSOu3j5MgSrdNjtLaKcF+aMXQxU+lUE1aniiqxKsPOFMYZ8eSTmtyRuuNSgYWMO5rXz/d35/iC088OfkRPEIVwxdKl7H+/T9SlxnhQbejshEfIAPBAkAfpane6SrpxGAA2LNYbobWwixivzTUDU7zR75IlS55YtGjRs7/99lv3o0ePdiosLIzE91Q1Go0lqampmT179tx3M1us00DIPbabTdncGIJmHC4Prfn786uzjzx2yHMovn/5Q0ioiY0+j0RrufhV+Za+i9tPefKeqO4BWspcP3BX9bKVsGjk9j5Xv5obD1AQJSKfXoAnrUhFFm0zvVmHnkOWpcO1mpe+rDpfkgTVYtXKXRWzMt49GKn5/HY8kWTTyQneQznjLz8zeJKSIBLOA6wcE61976npg6YPR1VcF4BhG1ihYnCCv/9O1vAeBUURXHzGG/aiUJPiSk9P342tsSeTSikzKeVo0mwNCDFF1rXEZfG5Tc8a3XEQ62rDyXnMhuN5MV49TGk+5GNOCuSYIitDttS5k65+Bee7n7zuTK7iipdXKiWrx+LHvVvlZE7p+5xcRBZ1ZHcgtKqGtHt82dCUlTEAyadRlHwXgKEUAGd8TrVlR6Cutw/BX3tLNIaA7nwdGak8lOuiRxME0aD86rVwi0iDSkrVGoBw017xQcfRlh2dgzk7zyH34RZjmvVZQRL+W5rdGFB05aZpWt2Q91KkvlAptsDTg9b9clvCm2nsiNLm29mVsHgECu/zinfUxpkeQ40bz+EdzD+bdK1yuSSgYm0eq9x0qNA2XxavBvvFBt/wrxbhKeFXXDQT/fetLvcVXbjdTTiJKFdLTs7jFdlcuY6i2IHhHerMHwcDWgVlRV0Oc0PeK5cYL6qkJrgtYXZvdl3Uy28iCdeI2fANNfA+A/wRULGGKcUnxB66RNct2siVWJPuT872SCiIUEtqdXZ+LTo7iGLEoKG5mVJLq4sL0H/xHTUJ10yP8U2chnRJJA3bSVElNZ5lwwV8a6LGh3z+IOB3a+mYqFnoZGLnFm/OITwVjRshVUcqTY5IVYfUaMW7KLKo1XPLt5vi5KhFJBhuYmS32OqUEmJnhFTLSfzFNRSKrMIknuZyufbDhpWAszl4BlRgtn5qCAEXa0oz9Xsn8qzTYx5sE5H7ybFG5ZG6vNDjhI2C1lUrCGphcdu0EkZe19sahJdyesMoZdD+kHenqvbSXldPtVq9omElBG7bp4YScLGKSMI2MNUwZiPDbI24I5Eo+rlh6wl7v9Rjs4kiBw1K0t0rEZHmv79OEIyXy6U6qOciIUT+26CtMejklLlzBB2nVKhXi8XibL798Re83GEwWifd0buVbtqeYS2XUQoxfWX9Gcq3VKEekGLS0/vV3tvLdLLB3Vtono/Xy36o67gwqdLkgnrPPrvxeT0SiYWwXb0wiWfEFOF+oqcykwB3a4PBEJL7rtYX3u7d2iZa+aGIIit/JeCTsNRw28XVJ9WV2ddvZVsObnEiekQSbfFC/96ttI+2iVJ8dK1jm6t02Q4Kp17xRdD4OtZpk4fbVE5pucem0YgU3PQOG4lCQlZO7606KGacaVHRMcNEIlHA1orxAa93xW4VIV+BJ07vO2d5n3yy2wCRzVNsyypxlp0q1VYW2pRShcga1kJbaEwxllDNtfoKL9NeqhDvuaeV9ja9UnzdJTO9I1ttd592gBVFCCo6rNG+qlHXClQAxyw5HfsY2v3a6AIbyW3xsszhySiool2doqKi75XL5Tv49snf8CpWjE4hyrqzvWFgUYWrx9lC+/h8g2ywpEtULLDVIR5C1VAyShSjk25tFaF4JEor2VWfcjto4o9TQNHF4hxS5Wy8WBW0FnSU2rrHlNWbL7FKKPD2SZRnpsWJHBLGeZtMTO2JiIgegeLUM3z4E2h4F2s1OE9anSv10IzC4aIj8HQ+uZgsashugfjGwL207Q+fc53o1uIm1+ddi0Rve/ua/F9Hv5B037yGlqGUUqbUSEadaJAW1Od4ggBaRAKtEIOMYjzNGMbbQSYV79HpokapVKp1EOB9FPgkaMRaE5wxUMmonMaW83TrofNGWt5ZaxLlg94T22i/ws0dwjfB3vAfCw4OHx7VrUEbqEWEqda5XK5Uw028By8KpCjqilQqPY6a+20oNs1vyLlDnaAUK1fcF522Lk3X9vff6HUd+5VNlMgbNmz+J0Z3M0jydHI8cnTZJzvS5/RrrYo9fbNl6PX6OY1yoglzS4uVAIJZm/bsiKF752z+kVqYFC7RNXo3bofXJS11WiJTtz+dua/vvJ7ddK38trJWoDb/Dz/JrYFbXyujAAAAAElFTkSuQmCC;" parent="1" vertex="1">
          <mxGeometry x="10" y="10" width="171" height="152" as="geometry" />
        </mxCell>
      </root>
    </mxGraphModel>
  </diagram>
</mxfile>
